<svg width="472" height="52" viewBox="0 0 472 52" fill="none" xmlns="http://www.w3.org/2000/svg">
<rect x="0.5" y="0.5" width="471" height="51" rx="7.5" fill="white"/>
<rect x="0.5" y="0.5" width="471" height="51" rx="7.5" stroke="#D4D7E5"/>
<path d="M47.864 32H49.048V27.176L52.896 20.48H51.536L48.456 25.832L45.36 20.48H44L47.864 27.176V32ZM56.3374 32.24C57.1907 32.24 57.9214 32.048 58.5294 31.664C59.1427 31.28 59.612 30.7467 59.9374 30.064C60.268 29.376 60.4334 28.5787 60.4334 27.672C60.4334 26.7813 60.2707 25.9947 59.9454 25.312C59.6254 24.624 59.1587 24.088 58.5454 23.704C57.9374 23.3147 57.2014 23.12 56.3374 23.12C55.4947 23.12 54.7667 23.312 54.1534 23.696C53.5454 24.0747 53.076 24.6053 52.7454 25.288C52.4147 25.9707 52.2494 26.7653 52.2494 27.672C52.2494 28.5627 52.4094 29.352 52.7294 30.04C53.0547 30.728 53.5214 31.2667 54.1294 31.656C54.7427 32.0453 55.4787 32.24 56.3374 32.24ZM56.3374 31.112C55.404 31.112 54.6974 30.8 54.2174 30.176C53.7374 29.5467 53.4974 28.712 53.4974 27.672C53.4974 26.664 53.7294 25.8427 54.1934 25.208C54.6574 24.568 55.372 24.248 56.3374 24.248C57.292 24.248 58.004 24.56 58.4734 25.184C58.948 25.8027 59.1854 26.632 59.1854 27.672C59.1854 28.6907 58.9507 29.52 58.4814 30.16C58.012 30.7947 57.2974 31.112 56.3374 31.112ZM65.5021 32.216C66.1208 32.216 66.6781 32.0987 67.1741 31.864C67.6755 31.624 68.0861 31.2693 68.4061 30.8V32H69.4621V23.36H68.2861V27.968C68.2861 28.944 68.0675 29.7093 67.6301 30.264C67.1928 30.8187 66.5581 31.096 65.7261 31.096C65.1235 31.096 64.6381 30.952 64.2701 30.664C63.9021 30.3707 63.6355 29.9733 63.4701 29.472C63.3048 28.9707 63.2221 28.4027 63.2221 27.768V23.36H62.0381V28.112C62.0381 28.5973 62.0968 29.0827 62.2141 29.568C62.3368 30.0533 62.5315 30.496 62.7981 30.896C63.0648 31.296 63.4195 31.616 63.8621 31.856C64.3101 32.096 64.8568 32.216 65.5021 32.216ZM71.6981 32H72.8741V27.688C72.8741 27.1707 72.9328 26.656 73.0501 26.144C73.1728 25.6267 73.4501 25.1973 73.8821 24.856C74.1968 24.6 74.5381 24.4533 74.9061 24.416C75.2795 24.3733 75.6261 24.3893 75.9461 24.464V23.36C75.5675 23.264 75.1381 23.2613 74.6581 23.352C74.1781 23.4373 73.7675 23.6293 73.4261 23.928C73.1701 24.12 72.9461 24.3867 72.7541 24.728V23.36H71.6981V32ZM80.6669 32H87.8669V30.872H81.8429V26.72H86.9069V25.592H81.8429V21.608H87.8669V20.48H80.6669V32ZM89.7839 32H90.9679V26.424C90.9679 25.7467 91.1519 25.2053 91.5199 24.8C91.8879 24.3893 92.3705 24.184 92.9679 24.184C93.5652 24.184 94.0452 24.384 94.4079 24.784C94.7759 25.1787 94.9599 25.72 94.9599 26.408L94.9519 32H96.1119L96.1199 26.424C96.1199 25.8853 96.2185 25.4533 96.4159 25.128C96.6185 24.7973 96.8745 24.5573 97.1839 24.408C97.4932 24.2587 97.8105 24.184 98.1359 24.184C98.7065 24.184 99.1759 24.376 99.5439 24.76C99.9172 25.1387 100.104 25.6613 100.104 26.328L100.096 32H101.272L101.28 26.104C101.28 25.192 101.019 24.4693 100.496 23.936C99.9785 23.3973 99.2825 23.128 98.4079 23.128C97.8319 23.128 97.3145 23.2587 96.8559 23.52C96.3972 23.776 96.0425 24.1307 95.7919 24.584C95.5572 24.1093 95.2185 23.7493 94.7759 23.504C94.3385 23.2533 93.8372 23.128 93.2719 23.128C92.7599 23.128 92.2932 23.232 91.8719 23.44C91.4505 23.6427 91.1065 23.92 90.8399 24.272V23.36H89.7839V32ZM105.826 32.24C107.336 32.24 108.432 31.6827 109.114 30.568V32H110.162V26.632C110.162 26.312 110.146 25.9973 110.114 25.688C110.082 25.3787 110.013 25.0987 109.906 24.848C109.677 24.288 109.285 23.8613 108.73 23.568C108.181 23.2693 107.512 23.12 106.722 23.12C105.773 23.12 105 23.3333 104.402 23.76C103.805 24.1867 103.405 24.7867 103.202 25.56L104.346 25.896C104.512 25.32 104.797 24.8987 105.202 24.632C105.613 24.3653 106.114 24.232 106.706 24.232C107.528 24.232 108.114 24.424 108.466 24.808C108.818 25.1867 109 25.7653 109.01 26.544C108.626 26.5973 108.202 26.6533 107.738 26.712C107.28 26.7707 106.818 26.8373 106.354 26.912C105.89 26.9867 105.464 27.072 105.074 27.168C104.429 27.3387 103.901 27.624 103.49 28.024C103.08 28.4187 102.874 28.9707 102.874 29.68C102.874 30.1387 102.984 30.5627 103.202 30.952C103.421 31.3413 103.749 31.6533 104.186 31.888C104.629 32.1227 105.176 32.24 105.826 32.24ZM105.962 31.224C105.498 31.224 105.125 31.1493 104.842 31C104.565 30.8453 104.362 30.6507 104.234 30.416C104.112 30.176 104.05 29.9307 104.05 29.68C104.05 29.2107 104.208 28.8587 104.522 28.624C104.837 28.3893 105.178 28.2187 105.546 28.112C106.021 27.984 106.573 27.88 107.202 27.8C107.832 27.72 108.429 27.6453 108.994 27.576C108.994 27.7733 108.986 28 108.97 28.256C108.96 28.5067 108.93 28.7387 108.882 28.952C108.77 29.6027 108.461 30.144 107.954 30.576C107.453 31.008 106.789 31.224 105.962 31.224ZM112.405 21.72H113.581V20.4H112.405V21.72ZM112.405 32H113.581V23.36H112.405V32ZM116.139 32H117.315V20.24H116.139V32Z" fill="#B4B7C9"/>
<path d="M32.667 19.3334H19.3337C18.4145 19.3334 17.667 20.0809 17.667 21V31C17.667 31.9192 18.4145 32.6667 19.3337 32.6667H32.667C33.5862 32.6667 34.3337 31.9192 34.3337 31V21C34.3337 20.0809 33.5862 19.3334 32.667 19.3334ZM32.667 21V21.4259L26.0003 26.6117L19.3337 21.4267V21H32.667ZM19.3337 31V23.5367L25.4887 28.3242C25.6387 28.4417 25.8195 28.5 26.0003 28.5C26.1812 28.5 26.362 28.4417 26.512 28.3242L32.667 23.5367L32.6687 31H19.3337Z" fill="#B4B7C9"/>
<path d="M330 0H464C468.418 0 472 3.58172 472 8V44C472 48.4183 468.418 52 464 52H330V0Z" fill="#6366F1"/>
<path d="M367.749 32.24C366.922 32.24 366.176 32.0987 365.509 31.816C364.848 31.528 364.301 31.12 363.869 30.592C363.442 30.0587 363.165 29.4267 363.037 28.696L364.781 28.432C364.957 29.136 365.325 29.6853 365.885 30.08C366.445 30.4693 367.098 30.664 367.845 30.664C368.309 30.664 368.736 30.592 369.125 30.448C369.514 30.2987 369.826 30.088 370.061 29.816C370.301 29.5387 370.421 29.208 370.421 28.824C370.421 28.616 370.384 28.432 370.309 28.272C370.24 28.112 370.141 27.9733 370.013 27.856C369.89 27.7333 369.738 27.6293 369.557 27.544C369.381 27.4533 369.186 27.376 368.973 27.312L366.021 26.44C365.733 26.3547 365.44 26.2453 365.141 26.112C364.842 25.9733 364.568 25.7947 364.317 25.576C364.072 25.352 363.872 25.0773 363.717 24.752C363.562 24.4213 363.485 24.0213 363.485 23.552C363.485 22.8427 363.666 22.2427 364.029 21.752C364.397 21.256 364.893 20.8827 365.517 20.632C366.141 20.376 366.84 20.248 367.613 20.248C368.392 20.2587 369.088 20.3973 369.701 20.664C370.32 20.9307 370.832 21.3147 371.237 21.816C371.648 22.312 371.93 22.9147 372.085 23.624L370.293 23.928C370.213 23.496 370.042 23.1253 369.781 22.816C369.52 22.5013 369.2 22.2613 368.821 22.096C368.442 21.9253 368.032 21.8373 367.589 21.832C367.162 21.8213 366.77 21.8853 366.413 22.024C366.061 22.1627 365.778 22.3573 365.565 22.608C365.357 22.8587 365.253 23.1467 365.253 23.472C365.253 23.792 365.346 24.0507 365.533 24.248C365.72 24.4453 365.949 24.6027 366.221 24.72C366.498 24.832 366.773 24.9253 367.045 25L369.173 25.6C369.44 25.6747 369.741 25.776 370.077 25.904C370.418 26.0267 370.746 26.2 371.061 26.424C371.381 26.648 371.645 26.9467 371.853 27.32C372.061 27.688 372.165 28.152 372.165 28.712C372.165 29.2933 372.048 29.8053 371.813 30.248C371.578 30.6853 371.256 31.0533 370.845 31.352C370.44 31.6453 369.97 31.8667 369.437 32.016C368.904 32.1653 368.341 32.24 367.749 32.24ZM377.126 32.232C376.529 32.232 376.027 32.136 375.622 31.944C375.217 31.752 374.886 31.5013 374.63 31.192C374.379 30.8773 374.187 30.536 374.054 30.168C373.921 29.8 373.83 29.44 373.782 29.088C373.734 28.736 373.71 28.4267 373.71 28.16V23.36H375.406V27.608C375.406 27.944 375.433 28.2907 375.486 28.648C375.545 29 375.651 29.328 375.806 29.632C375.966 29.936 376.187 30.1813 376.47 30.368C376.758 30.5547 377.131 30.648 377.59 30.648C377.889 30.648 378.171 30.6 378.438 30.504C378.705 30.4027 378.937 30.2427 379.134 30.024C379.337 29.8053 379.494 29.5173 379.606 29.16C379.723 28.8027 379.782 28.368 379.782 27.856L380.822 28.248C380.822 29.032 380.675 29.7253 380.382 30.328C380.089 30.9253 379.667 31.392 379.118 31.728C378.569 32.064 377.905 32.232 377.126 32.232ZM379.982 32V29.504H379.782V23.36H381.47V32H379.982ZM387.77 32.24C386.943 32.24 386.25 32.04 385.69 31.64C385.13 31.2347 384.706 30.688 384.418 30C384.13 29.312 383.986 28.536 383.986 27.672C383.986 26.808 384.127 26.032 384.41 25.344C384.698 24.656 385.119 24.1147 385.674 23.72C386.234 23.32 386.922 23.12 387.738 23.12C388.548 23.12 389.247 23.32 389.834 23.72C390.426 24.1147 390.882 24.656 391.202 25.344C391.522 26.0267 391.682 26.8027 391.682 27.672C391.682 28.536 391.522 29.3147 391.202 30.008C390.887 30.696 390.436 31.24 389.85 31.64C389.268 32.04 388.575 32.24 387.77 32.24ZM383.706 32V20.48H385.386V25.784H385.194V32H383.706ZM387.538 30.728C388.071 30.728 388.511 30.592 388.858 30.32C389.21 30.048 389.471 29.6827 389.642 29.224C389.818 28.76 389.906 28.2427 389.906 27.672C389.906 27.1067 389.818 26.5947 389.642 26.136C389.471 25.6773 389.207 25.312 388.85 25.04C388.492 24.768 388.036 24.632 387.482 24.632C386.959 24.632 386.527 24.76 386.186 25.016C385.85 25.272 385.599 25.6293 385.434 26.088C385.274 26.5467 385.194 27.0747 385.194 27.672C385.194 28.2693 385.274 28.7973 385.434 29.256C385.594 29.7147 385.847 30.0747 386.194 30.336C386.54 30.5973 386.988 30.728 387.538 30.728ZM396.596 32.232C395.545 32.232 394.689 32 394.028 31.536C393.367 31.072 392.961 30.4187 392.812 29.576L394.524 29.312C394.631 29.76 394.876 30.1147 395.26 30.376C395.649 30.632 396.132 30.76 396.708 30.76C397.231 30.76 397.639 30.6533 397.932 30.44C398.231 30.2267 398.38 29.9333 398.38 29.56C398.38 29.3413 398.327 29.1653 398.22 29.032C398.119 28.8933 397.903 28.7627 397.572 28.64C397.241 28.5173 396.737 28.3653 396.06 28.184C395.319 27.992 394.729 27.7867 394.292 27.568C393.86 27.344 393.551 27.0853 393.364 26.792C393.183 26.4933 393.092 26.1333 393.092 25.712C393.092 25.1893 393.231 24.7333 393.508 24.344C393.785 23.9547 394.175 23.6533 394.676 23.44C395.183 23.2267 395.775 23.12 396.452 23.12C397.113 23.12 397.703 23.224 398.22 23.432C398.737 23.64 399.156 23.936 399.476 24.32C399.796 24.6987 399.988 25.144 400.052 25.656L398.34 25.968C398.281 25.552 398.087 25.224 397.756 24.984C397.425 24.744 396.996 24.6133 396.468 24.592C395.961 24.5707 395.551 24.656 395.236 24.848C394.921 25.0347 394.764 25.2933 394.764 25.624C394.764 25.816 394.823 25.9787 394.94 26.112C395.063 26.2453 395.297 26.3733 395.644 26.496C395.991 26.6187 396.503 26.7653 397.18 26.936C397.905 27.1227 398.481 27.3307 398.908 27.56C399.335 27.784 399.639 28.0533 399.82 28.368C400.007 28.6773 400.1 29.0533 400.1 29.496C400.1 30.3493 399.788 31.0187 399.164 31.504C398.545 31.9893 397.689 32.232 396.596 32.232ZM405.566 32.24C404.681 32.24 403.929 32.0427 403.31 31.648C402.691 31.2533 402.217 30.712 401.886 30.024C401.561 29.336 401.395 28.5547 401.39 27.68C401.395 26.7893 401.566 26.0027 401.902 25.32C402.238 24.632 402.718 24.0933 403.342 23.704C403.966 23.3147 404.715 23.12 405.59 23.12C406.534 23.12 407.339 23.3547 408.006 23.824C408.678 24.2933 409.121 24.936 409.334 25.752L407.67 26.232C407.505 25.7467 407.233 25.3707 406.854 25.104C406.481 24.832 406.051 24.696 405.566 24.696C405.017 24.696 404.566 24.8267 404.214 25.088C403.862 25.344 403.601 25.696 403.43 26.144C403.259 26.592 403.171 27.104 403.166 27.68C403.171 28.5707 403.374 29.2907 403.774 29.84C404.179 30.3893 404.777 30.664 405.566 30.664C406.105 30.664 406.539 30.5413 406.87 30.296C407.206 30.0453 407.462 29.688 407.638 29.224L409.334 29.624C409.051 30.4667 408.585 31.1147 407.934 31.568C407.283 32.016 406.494 32.24 405.566 32.24ZM410.964 32V23.36H412.452V25.456L412.244 25.184C412.35 24.9067 412.489 24.6533 412.66 24.424C412.83 24.1893 413.028 23.9973 413.252 23.848C413.47 23.688 413.713 23.5653 413.98 23.48C414.252 23.3893 414.529 23.336 414.812 23.32C415.094 23.2987 415.366 23.312 415.628 23.36V24.928C415.345 24.8533 415.03 24.832 414.684 24.864C414.342 24.896 414.028 25.0053 413.74 25.192C413.468 25.368 413.252 25.5813 413.092 25.832C412.937 26.0827 412.825 26.3627 412.756 26.672C412.686 26.976 412.652 27.2987 412.652 27.64V32H410.964ZM417.311 21.944V20.32H418.983V21.944H417.311ZM417.311 32V23.36H418.983V32H417.311ZM425.442 32.24C424.615 32.24 423.922 32.04 423.362 31.64C422.802 31.2347 422.378 30.688 422.09 30C421.802 29.312 421.658 28.536 421.658 27.672C421.658 26.808 421.799 26.032 422.082 25.344C422.37 24.656 422.791 24.1147 423.346 23.72C423.906 23.32 424.594 23.12 425.41 23.12C426.22 23.12 426.919 23.32 427.506 23.72C428.098 24.1147 428.554 24.656 428.874 25.344C429.194 26.0267 429.354 26.8027 429.354 27.672C429.354 28.536 429.194 29.3147 428.874 30.008C428.559 30.696 428.108 31.24 427.522 31.64C426.94 32.04 426.247 32.24 425.442 32.24ZM421.378 32V20.48H423.058V25.784H422.866V32H421.378ZM425.21 30.728C425.743 30.728 426.183 30.592 426.53 30.32C426.882 30.048 427.143 29.6827 427.314 29.224C427.49 28.76 427.578 28.2427 427.578 27.672C427.578 27.1067 427.49 26.5947 427.314 26.136C427.143 25.6773 426.879 25.312 426.522 25.04C426.164 24.768 425.708 24.632 425.154 24.632C424.631 24.632 424.199 24.76 423.858 25.016C423.522 25.272 423.271 25.6293 423.106 26.088C422.946 26.5467 422.866 27.0747 422.866 27.672C422.866 28.2693 422.946 28.7973 423.106 29.256C423.266 29.7147 423.519 30.0747 423.866 30.336C424.212 30.5973 424.66 30.728 425.21 30.728ZM434.952 32.24C434.093 32.24 433.339 32.0533 432.688 31.68C432.043 31.3013 431.539 30.776 431.176 30.104C430.819 29.4267 430.64 28.6427 430.64 27.752C430.64 26.808 430.816 25.9893 431.168 25.296C431.525 24.6027 432.021 24.0667 432.656 23.688C433.291 23.3093 434.029 23.12 434.872 23.12C435.752 23.12 436.501 23.3253 437.12 23.736C437.739 24.1413 438.2 24.72 438.504 25.472C438.813 26.224 438.936 27.1173 438.872 28.152H437.2V27.544C437.189 26.5413 436.997 25.8 436.624 25.32C436.256 24.84 435.693 24.6 434.936 24.6C434.099 24.6 433.469 24.864 433.048 25.392C432.627 25.92 432.416 26.6827 432.416 27.68C432.416 28.6293 432.627 29.3653 433.048 29.888C433.469 30.4053 434.077 30.664 434.872 30.664C435.395 30.664 435.845 30.5467 436.224 30.312C436.608 30.072 436.907 29.7307 437.12 29.288L438.76 29.808C438.424 30.5813 437.915 31.1813 437.232 31.608C436.549 32.0293 435.789 32.24 434.952 32.24ZM431.872 28.152V26.848H438.04V28.152H431.872Z" fill="white"/>
</svg>
